<svg width="68" height="15" viewBox="0 0 68 15" fill="none" xmlns="http://www.w3.org/2000/svg">
<path d="M5.004 5.52H5.988V7.176H5.004V5.52ZM0.6 6.828H10.404V7.632H0.6V6.828ZM1.788 8.508H9.144V10.992H2.784V12.264H1.812V10.26H8.172V9.264H1.788V8.508ZM1.812 12.036H9.468V12.816H1.812V12.036ZM4.86 2.772H5.724V3.096C5.724 3.432 5.648 3.744 5.496 4.032C5.352 4.32 5.144 4.58 4.872 4.812C4.6 5.036 4.284 5.236 3.924 5.412C3.572 5.588 3.184 5.732 2.76 5.844C2.336 5.956 1.9 6.036 1.452 6.084L1.116 5.328C1.508 5.288 1.884 5.224 2.244 5.136C2.612 5.048 2.952 4.936 3.264 4.8C3.584 4.664 3.86 4.512 4.092 4.344C4.332 4.168 4.52 3.976 4.656 3.768C4.792 3.56 4.86 3.336 4.86 3.096V2.772ZM5.292 2.772H6.144V3.096C6.144 3.336 6.212 3.56 6.348 3.768C6.484 3.976 6.668 4.168 6.9 4.344C7.14 4.52 7.416 4.676 7.728 4.812C8.048 4.94 8.392 5.048 8.76 5.136C9.128 5.224 9.504 5.288 9.888 5.328L9.564 6.084C9.108 6.036 8.668 5.956 8.244 5.844C7.828 5.732 7.44 5.592 7.08 5.424C6.72 5.248 6.404 5.044 6.132 4.812C5.868 4.58 5.66 4.324 5.508 4.044C5.364 3.756 5.292 3.44 5.292 3.096V2.772ZM1.5 2.424H9.516V3.228H1.5V2.424ZM17.0871 4.668H20.0031V5.484H17.0871V4.668ZM14.6031 2.58C15.1391 2.58 15.6151 2.688 16.0311 2.904C16.4551 3.112 16.7871 3.404 17.0271 3.78C17.2671 4.156 17.3871 4.592 17.3871 5.088C17.3871 5.584 17.2671 6.024 17.0271 6.408C16.7871 6.784 16.4551 7.08 16.0311 7.296C15.6151 7.504 15.1391 7.608 14.6031 7.608C14.0591 7.608 13.5751 7.504 13.1511 7.296C12.7351 7.08 12.4071 6.784 12.1671 6.408C11.9271 6.024 11.8071 5.584 11.8071 5.088C11.8071 4.592 11.9271 4.156 12.1671 3.78C12.4071 3.404 12.7351 3.112 13.1511 2.904C13.5751 2.688 14.0591 2.58 14.6031 2.58ZM14.6031 3.42C14.2431 3.42 13.9231 3.492 13.6431 3.636C13.3711 3.772 13.1551 3.968 12.9951 4.224C12.8351 4.472 12.7551 4.76 12.7551 5.088C12.7551 5.416 12.8351 5.708 12.9951 5.964C13.1551 6.212 13.3711 6.408 13.6431 6.552C13.9231 6.696 14.2431 6.768 14.6031 6.768C14.9551 6.768 15.2671 6.696 15.5391 6.552C15.8191 6.408 16.0391 6.212 16.1991 5.964C16.3591 5.708 16.4391 5.416 16.4391 5.088C16.4391 4.76 16.3591 4.472 16.1991 4.224C16.0391 3.968 15.8191 3.772 15.5391 3.636C15.2671 3.492 14.9551 3.42 14.6031 3.42ZM19.5711 2.076H20.5671V7.908H19.5711V2.076ZM13.6191 8.448H14.6031V9.804H19.5711V8.448H20.5671V12.792H13.6191V8.448ZM14.6031 10.596V11.976H19.5711V10.596H14.6031ZM30.1061 2.04H31.1021V8.04H30.1061V2.04ZM30.6701 4.656H32.7101V5.484H30.6701V4.656ZM24.2021 8.592H31.1021V11.016H25.2101V12.324H24.2381V10.296H30.1181V9.336H24.2021V8.592ZM24.2381 12.048H31.4861V12.816H24.2381V12.048ZM22.7021 3.06H29.1101V3.84H22.7021V3.06ZM25.9061 4.32C26.6901 4.32 27.3181 4.48 27.7901 4.8C28.2621 5.112 28.4981 5.544 28.4981 6.096C28.4981 6.64 28.2621 7.072 27.7901 7.392C27.3181 7.712 26.6901 7.872 25.9061 7.872C25.1141 7.872 24.4821 7.712 24.0101 7.392C23.5381 7.072 23.3021 6.64 23.3021 6.096C23.3021 5.544 23.5381 5.112 24.0101 4.8C24.4821 4.48 25.1141 4.32 25.9061 4.32ZM25.9061 5.052C25.4101 5.052 25.0101 5.148 24.7061 5.34C24.4101 5.524 24.2621 5.776 24.2621 6.096C24.2621 6.416 24.4101 6.672 24.7061 6.864C25.0101 7.048 25.4101 7.14 25.9061 7.14C26.4101 7.14 26.8101 7.048 27.1061 6.864C27.4021 6.672 27.5501 6.416 27.5501 6.096C27.5501 5.776 27.4021 5.524 27.1061 5.34C26.8101 5.148 26.4101 5.052 25.9061 5.052ZM25.4141 1.968H26.4101V3.6H25.4141V1.968Z" fill="black"/>
<path d="M59.48 2.916C60.016 2.916 60.488 3.072 60.896 3.384C61.304 3.688 61.624 4.124 61.856 4.692C62.088 5.26 62.204 5.928 62.204 6.696C62.204 7.464 62.088 8.132 61.856 8.7C61.624 9.268 61.304 9.708 60.896 10.02C60.488 10.332 60.016 10.488 59.48 10.488C58.952 10.488 58.48 10.332 58.064 10.02C57.656 9.708 57.336 9.268 57.104 8.7C56.872 8.132 56.756 7.464 56.756 6.696C56.756 5.928 56.872 5.26 57.104 4.692C57.336 4.124 57.656 3.688 58.064 3.384C58.48 3.072 58.952 2.916 59.48 2.916ZM59.48 3.804C59.136 3.804 58.828 3.924 58.556 4.164C58.292 4.396 58.084 4.732 57.932 5.172C57.78 5.604 57.704 6.112 57.704 6.696C57.704 7.28 57.78 7.792 57.932 8.232C58.084 8.664 58.292 9 58.556 9.24C58.828 9.48 59.14 9.6 59.492 9.6C59.836 9.6 60.14 9.48 60.404 9.24C60.676 9 60.884 8.664 61.028 8.232C61.18 7.792 61.256 7.28 61.256 6.696C61.256 6.112 61.18 5.604 61.028 5.172C60.884 4.732 60.676 4.396 60.404 4.164C60.14 3.924 59.832 3.804 59.48 3.804ZM64.664 4.8H66.668V5.64H64.664V4.8ZM64.664 8.04H66.668V8.868H64.664V8.04ZM63.944 2.076H64.94V12.936H63.944V2.076Z" fill="black"/>
<path d="M38.7585 12V3.27273H40.6037V7.12074H40.7188L43.8594 3.27273H46.071L42.8324 7.1804L46.1094 12H43.902L41.5114 8.41193L40.6037 9.51989V12H38.7585ZM52.4226 3.27273H54.2678V8.94034C54.2678 9.5767 54.1158 10.1335 53.8118 10.6108C53.5107 11.0881 53.0888 11.4602 52.5462 11.7273C52.0036 11.9915 51.3714 12.1236 50.6499 12.1236C49.9254 12.1236 49.2919 11.9915 48.7493 11.7273C48.2067 11.4602 47.7848 11.0881 47.4837 10.6108C47.1825 10.1335 47.032 9.5767 47.032 8.94034V3.27273H48.8771V8.78267C48.8771 9.11506 48.9496 9.41051 49.0945 9.66903C49.2422 9.92756 49.4496 10.1307 49.7166 10.2784C49.9837 10.4261 50.2947 10.5 50.6499 10.5C51.0078 10.5 51.3189 10.4261 51.5831 10.2784C51.8501 10.1307 52.0561 9.92756 52.201 9.66903C52.3487 9.41051 52.4226 9.11506 52.4226 8.78267V3.27273Z" fill="#0E8630"/>
</svg>